<?xml version="1.0" encoding="UTF-8" standalone="no"?><!DOCTYPE svg PUBLIC "-//W3C//DTD SVG 1.1//EN" "http://www.w3.org/Graphics/SVG/1.1/DTD/svg11.dtd"><svg width="200" viewBox="0 0 348 124" version="1.1" xmlns="http://www.w3.org/2000/svg" xmlns:xlink="http://www.w3.org/1999/xlink" xml:space="preserve" xmlns:serif="http://www.serif.com/" style="fill-rule:evenodd;clip-rule:evenodd;stroke-linecap:round;stroke-linejoin:round;stroke-miterlimit:1.5;"><rect id="Artboard1" x="0" y="0" width="347.284" height="123.139" style="fill:none;"/><clipPath id="_clip1"><rect x="0" y="0" width="347.284" height="123.139"/></clipPath><g clip-path="url(#_clip1)"><path id="XMLID_845_" d="M132.858,120.245l-0,0.773c1.436,-0.332 2.927,-0.718 4.363,-0.994c0.939,-0.166 1.934,-0.221 2.818,-0c2.264,0.497 4.474,0.662 6.738,0.276c1.602,-0.276 3.315,-0.166 4.916,-0.442c2.873,-0.552 5.8,-0.773 8.673,-0.387c4.032,0.553 7.954,0.111 11.931,-0.11c2.596,-0.111 5.137,-0.166 7.733,-0.221c0.276,-0 0.552,-0 0.773,0.11c1.105,0.608 2.32,0.387 3.48,0.221c0.773,-0.11 1.547,-0.221 2.265,-0.276c5.855,-0.497 11.765,-0.276 17.62,0.166c1.547,0.11 3.094,0.11 4.585,0.055c1.657,-0.055 3.038,-0.829 4.032,-2.209c1.878,-2.597 3.867,-5.082 5.8,-7.678c0.939,-1.271 1.878,-2.541 2.983,-3.922l-1.823,-0c1.436,-2.707 2.817,-5.248 4.253,-7.954c-0.607,-0.111 -1.325,-0.387 -1.491,-0.166c-0.994,0.994 -2.265,0.663 -3.37,1.105c-0.221,-0.497 -0.386,-0.829 -0.552,-1.215c-7.236,-17.124 -14.472,-34.247 -21.653,-51.371c-5.137,-12.317 -10.219,-24.746 -15.3,-37.119c-1.16,-2.872 -2.21,-5.744 -3.37,-8.672l-1.712,0c-0.111,0.332 -0.166,0.663 -0.276,0.995c-10.164,26.845 -20.272,53.634 -30.436,80.479c-2.541,6.794 -5.137,13.533 -7.678,20.327c-0.22,0.663 -0.552,0.995 -1.27,0.995c-0.663,-0 -1.381,0.221 -2.044,0.331l0,7.844c-0.165,0.055 -0.276,0.11 -0.386,0.11c-0.995,0.055 -1.381,0.553 -1.326,1.547c0.055,1.049 -0.055,2.099 -0.111,3.148c0.056,1.326 -0.055,2.817 -0.165,4.254Zm8.064,-17.731c0.718,-1.878 1.436,-3.646 2.099,-5.414c0.221,-0.607 0.553,-0.773 1.215,-0.828c11.545,-0.497 23.034,-1.05 34.579,-1.547c0.773,-0.055 1.491,0 2.32,0c0.11,1.878 0.165,3.701 0.276,5.524c-0.221,0.055 -0.332,0.11 -0.387,0.11c-3.811,0.166 -7.567,0.332 -11.379,0.442c-1.049,0.055 -2.099,-0.165 -3.148,-0.055c-6.187,0.552 -12.318,1.27 -18.504,1.768c-2.376,0.165 -4.696,-0 -7.071,-0Zm26.238,-1.492l-0,1.713c-2.596,0.165 -5.137,0.441 -7.733,0.552c-5.524,0.221 -11.048,0.387 -16.571,0.663c-0.774,0.055 -1.216,-0.166 -1.437,-0.995c8.728,0.277 17.179,-1.215 25.741,-1.933Zm13.367,-0.221c0.276,0 0.608,0.221 0.884,0.387c-0.276,0.11 -0.553,0.387 -0.829,0.387c-2.541,0.276 -5.137,0.497 -7.733,0.718c-1.712,0.165 -3.48,0.276 -5.247,0.442l-0,-1.492c4.419,-0.11 8.672,-0.276 12.925,-0.442Zm39.826,0.387c-0.387,-0.939 -0.718,-1.657 -1.05,-2.486c0.829,-0.165 1.602,-0.331 2.596,-0.497c-0.552,1.105 -0.994,1.989 -1.546,2.983Zm-8.838,4.419c1.049,-1.326 2.209,-2.762 3.314,-4.143c0.166,-0.166 0.497,-0.276 0.718,-0.221c1.436,0.221 2.817,0.497 4.308,0.829c-0.607,1.16 -1.159,2.209 -1.712,3.259c-0.11,0.165 -0.331,0.276 -0.552,0.276l-6.076,-0Zm-17.068,-4.971c4.087,-0.166 8.009,-0.277 11.931,-0.498c2.541,-0.165 4.971,0.056 7.457,0.774c-1.216,1.491 -2.375,2.983 -3.591,4.419c-0.331,0.331 -0.883,0.607 -1.325,0.663c-2.21,0.165 -4.419,0.22 -6.574,0.386c-1.933,0.111 -3.811,0.276 -5.413,-1.105c-0.442,-0.331 -1.049,-0.441 -1.546,-0.718c-0.221,-0.11 -0.497,-0.276 -0.497,-0.442c-0.221,-1.16 -0.332,-2.264 -0.442,-3.479Zm12.428,-0.939c-4.032,0.165 -8.065,0.386 -12.042,0.497c-0.165,-0 -0.386,-0.277 -0.607,-0.387c0.055,-0.11 0.11,-0.221 0.165,-0.276l12.871,-0c-0.221,0.11 -0.277,0.166 -0.387,0.166Zm-17.234,1.27c1.491,-0.111 2.928,-0.166 4.419,-0.276c0.11,1.215 0.221,2.375 0.331,3.48c-1.546,-0.111 -2.982,-0.221 -4.474,-0.332c-0.11,-0.939 -0.221,-1.878 -0.276,-2.872Zm-5.413,0.663c1.712,-0.221 3.314,-0.387 5.026,-0.608c0.056,0.939 0.166,1.823 0.221,2.707l-5.137,-0c-0.055,-0.774 -0.11,-1.436 -0.11,-2.099Zm-0.166,-0.829c0.055,-0.11 0.111,-0.165 0.111,-0.276c2.982,-0.276 5.965,-0.552 8.948,-0.828c0.276,-0 0.552,0.165 0.773,0.22c-0.276,0.166 -0.497,0.387 -0.773,0.387c-1.823,0.221 -3.59,0.332 -5.413,0.497c-0.995,0.111 -1.934,0.276 -2.928,0.332c-0.221,0.055 -0.497,-0.221 -0.718,-0.332Zm-0.276,-6.352c6.849,1.547 13.643,3.093 20.438,4.585c-6.684,-0.166 -13.368,0.276 -20.107,1.16c-0.11,-2.099 -0.221,-3.977 -0.331,-5.745Zm-5.192,-92.742c0.221,0.552 0.386,0.828 0.497,1.104c1.381,3.646 2.762,7.292 4.087,10.937c0.608,1.768 1.216,3.591 1.492,5.413c1.104,6.85 1.215,13.81 1.27,20.769c0,5.856 -0.055,11.766 -0.331,17.621c-0.276,7.512 -0.718,15.024 -1.16,22.481c-0.221,3.48 -0.497,6.96 -0.774,10.385l-0.11,-0c-1.657,-29.386 -3.314,-58.883 -4.971,-88.71Zm-10.937,101.469c4.584,-0.441 9.114,-0.828 13.809,-1.27l0,1.712l-13.754,0c-0.055,-0.11 -0.055,-0.276 -0.055,-0.442Zm-5.966,0.332c1.878,-0.111 3.701,-0.221 5.524,-0.332c-0,0.111 0.055,0.221 0.055,0.332c-1.767,0.276 -3.535,0.552 -5.413,0.884c-0,-0.111 -0.11,-0.442 -0.166,-0.884Zm-19.443,0.884c6.407,-0.277 12.704,-0.497 19.057,-0.774c-0,0.387 0.055,0.829 -0,1.216c-0.056,0.386 -0.332,0.718 -0.387,1.104c-0.111,0.442 -0.111,0.884 -0.111,1.381c-1.712,0.166 -3.314,0.332 -4.916,0.497c-3.535,0.332 -7.07,0.718 -10.55,1.05c-0.276,-0 -0.773,-0.055 -0.884,-0.276c-0.828,-1.326 -1.491,-2.707 -2.209,-4.198Zm-2.044,-0.111c0.663,0.166 1.436,0.166 1.657,0.553c0.829,1.27 1.436,2.651 2.265,4.198c-1.436,0.11 -2.651,0.22 -3.922,0.331l0,-5.082Zm-1.823,-1.823c12.705,-33.528 25.409,-67.112 38.114,-100.641l0.221,0c0.055,0.221 0.11,0.442 0.11,0.608c0.111,2.817 0.332,5.689 0.387,8.506c-0,0.994 -0.111,2.044 -0.442,2.983c-0.829,2.651 -1.712,5.303 -2.596,7.899c-4.309,12.87 -8.451,25.795 -13.644,38.334c-4.363,10.55 -8.396,21.266 -12.538,31.927c-1.05,2.651 -0.995,2.706 -3.867,2.762c-0.608,-0 -0.939,0.221 -1.215,0.718c-1.16,2.154 -2.32,4.253 -3.48,6.407c-0.166,0.276 -0.497,0.497 -0.773,0.718c-0.111,-0.055 -0.166,-0.11 -0.277,-0.221Zm-1.16,8.286c0.166,-2.044 0.332,-4.088 0.553,-6.131l0.276,-0c-0.166,2.043 0.331,4.142 -0.829,6.131Zm-1.822,-6.131l1.657,-0c-0.111,2.099 -0.221,4.142 -0.332,6.241c-0.442,0.056 -0.828,0.111 -1.325,0.166l-0,-6.407Zm-0.111,-0.774c0.111,-0.165 0.276,-0.386 0.387,-0.442c0.607,-0.11 1.215,-0.221 1.933,-0.276c-0.166,1.436 -1.16,0.884 -1.878,0.994c-0.11,0.056 -0.276,-0.165 -0.442,-0.276Z" style="fill:#dedede;fill-rule:nonzero;"/><path d="M246.68,72.435l105.03,-0" style="fill:none;stroke:#dedede;stroke-width:2.33px;"/><path d="M5.146,72.435l105.03,-0" style="fill:none;stroke:#dedede;stroke-width:2.33px;"/></g></svg>